<svg width="30" height="28" viewBox="0 0 30 28" fill="none" xmlns="http://www.w3.org/2000/svg">
<path d="M14.956 15.7231C19.3988 15.7231 22.9619 12.1908 22.9619 7.88308C22.9619 3.57538 19.3988 0 14.956 0C10.5132 0 6.95015 3.53231 6.95015 7.84C6.95015 12.1477 10.5132 15.7231 14.956 15.7231ZM14.956 2.06769C18.2111 2.06769 20.8504 4.65231 20.8504 7.84C20.8504 11.0277 18.2111 13.6123 14.956 13.6123C11.7009 13.6123 9.06158 11.0708 9.06158 7.88308C9.06158 4.69538 11.7009 2.06769 14.956 2.06769ZM1.05572 28H28.9443C29.5161 28 30 27.5262 30 26.9662C30 21.5385 25.4692 17.1015 19.9267 17.1015H10.0733C4.53079 17.1015 0 21.5385 0 26.9662C0 27.5262 0.483871 28 1.05572 28ZM10.0733 19.1692H19.9267C23.9736 19.1692 27.2727 22.0985 27.8006 25.9323H2.19941C2.72727 22.0985 6.02639 19.1692 10.0733 19.1692Z" fill="#D3CFF9"/>
</svg>
