<svg width="129" height="177" viewBox="0 0 129 177" fill="none" xmlns="http://www.w3.org/2000/svg">
<path d="M65.101 141.621V169.265M65.101 169.265L97.5521 129.202M65.101 169.265L32.2493 129.202" stroke="white" stroke-width="3"/>
<path d="M5.80756 107.568L13.8202 103.962V47.4732L65.1009 17.0253L115.981 47.4732V103.962L124.394 107.568L65.1009 142.823L5.80756 107.568Z" fill="white"/>
<path d="M1 39.4606V110.773L22.6341 123.994L65.1009 175.274L106.767 123.994L128 110.773V39.4606L65.1009 1L1 39.4606Z" stroke="white"/>
<path d="M5.40698 42.6656V107.568L65.101 142.823L124.394 107.568V42.6656L65.101 7.00946L5.40698 42.6656Z" stroke="white"/>
<path d="M17.8265 48.2745L64.2997 75.918V134.811L17.8265 108.369V48.2745Z" fill="#8871C8"/>
<path d="M112.776 49.7088L65.9022 75.918V134.811L112.776 108.77V49.7088Z" fill="#36358F"/>
<path d="M21.4321 46.2713L65.1009 21.0315L110.773 47.4732L65.1009 72.3123L21.4321 46.2713Z" fill="#5F57B8"/>
<path d="M65.101 72.3123V20.6309" stroke="white" stroke-width="2"/>
<path d="M65.5015 104.763L114.378 78.3217" stroke="white" stroke-width="2"/>
<path d="M64.7003 104.763L16.224 77.5205" stroke="white" stroke-width="2"/>
</svg>
