<svg width="41" height="23" viewBox="0 0 41 23" fill="none" xmlns="http://www.w3.org/2000/svg">
<path fill-rule="evenodd" clip-rule="evenodd" d="M40.3509 11.1566C40.3509 10.8276 40.1991 10.5121 39.9288 10.2795C39.6586 10.0469 39.292 9.9162 38.9099 9.9162L4.92219 9.9162L13.9919 2.11156C14.2625 1.87864 14.4145 1.56274 14.4145 1.23335C14.4145 0.903959 14.2625 0.588058 13.9919 0.355143C13.7213 0.122227 13.3543 -0.00862122 12.9717 -0.00862122C12.589 -0.00862122 12.222 0.122227 11.9514 0.355143L0.423351 10.2784C0.289155 10.3936 0.182685 10.5305 0.110039 10.6812C0.0373936 10.8319 0 10.9935 0 11.1566C0 11.3198 0.0373936 11.4813 0.110039 11.632C0.182685 11.7827 0.289155 11.9196 0.423351 12.0348L11.9514 21.9581C12.0854 22.0734 12.2445 22.1649 12.4195 22.2273C12.5946 22.2897 12.7822 22.3218 12.9717 22.3218C13.3543 22.3218 13.7213 22.191 13.9919 21.9581C14.2625 21.7252 14.4145 21.4093 14.4145 21.0799C14.4145 20.7505 14.2625 20.4346 13.9919 20.2017L4.92219 12.397L38.9099 12.397C39.292 12.397 39.6586 12.2663 39.9288 12.0337C40.1991 11.8011 40.3509 11.4856 40.3509 11.1566Z" fill="#D3CFF9"/>
</svg>
